<svg width="420" height="120" viewBox="0 0 420 120" fill="none" xmlns="http://www.w3.org/2000/svg" role="img" aria-labelledby="title desc">
  <title id="title">DSA Doctor</title>
  <desc id="desc">DSA Doctor logo with a code-stethoscope icon and wordmark.</desc>
  <defs>
    <linearGradient id="markGradient" x1="18" y1="12" x2="112" y2="106" gradientUnits="userSpaceOnUse">
      <stop stop-color="#8B5CF6"/>
      <stop offset="0.48" stop-color="#3B82F6"/>
      <stop offset="1" stop-color="#06B6D4"/>
    </linearGradient>
    <linearGradient id="wordGradient" x1="224" y1="32" x2="336" y2="78" gradientUnits="userSpaceOnUse">
      <stop stop-color="#3B82F6"/>
      <stop offset="1" stop-color="#8B5CF6"/>
    </linearGradient>
    <filter id="softShadow" x="-20%" y="-20%" width="140%" height="140%" color-interpolation-filters="sRGB">
      <feDropShadow dx="0" dy="10" stdDeviation="10" flood-color="#3B82F6" flood-opacity="0.16"/>
    </filter>
  </defs>

  <g filter="url(#softShadow)">
    <path d="M58 16C40 20 28 34 28 53C28 75 45 92 67 92C88 92 105 75 105 54V24" stroke="url(#markGradient)" stroke-width="7" stroke-linecap="round" stroke-linejoin="round"/>
    <path d="M72 16C90 20 102 34 102 53" stroke="url(#markGradient)" stroke-width="7" stroke-linecap="round" stroke-linejoin="round"/>
    <circle cx="105" cy="24" r="7" fill="#F8FAFC" stroke="url(#markGradient)" stroke-width="5"/>
    <path d="M67 92V101C67 108 73 114 80 114H97C104 114 110 108 110 101V95" stroke="url(#markGradient)" stroke-width="7" stroke-linecap="round"/>
    <circle cx="110" cy="91" r="14" fill="#F8FAFC" stroke="url(#markGradient)" stroke-width="6"/>
    <circle cx="110" cy="91" r="4" fill="#3B82F6"/>
    <path d="M47 45L37 55L47 65" stroke="url(#markGradient)" stroke-width="6" stroke-linecap="round" stroke-linejoin="round"/>
    <path d="M82 45L92 55L82 65" stroke="url(#markGradient)" stroke-width="6" stroke-linecap="round" stroke-linejoin="round"/>
    <path d="M70 39L60 71" stroke="url(#markGradient)" stroke-width="6" stroke-linecap="round"/>
  </g>

  <text x="142" y="72" fill="#0F172A" font-family="Inter, Segoe UI, Arial, sans-serif" font-size="42" font-weight="800" letter-spacing="-0.5">DSA</text>
  <text x="236" y="72" fill="url(#wordGradient)" font-family="Inter, Segoe UI, Arial, sans-serif" font-size="42" font-weight="800" letter-spacing="-0.5">Doctor</text>
</svg>
